<?xml version="1.0" standalone="no"?>
<svg viewBox="0 0 200 200" xmlns="http://www.w3.org/2000/svg">
  <path fill="#82C8D2" d="M30.7,-55C38.3,-48.9,41.7,-37.5,48.9,-27.4C56.1,-17.4,66.9,-8.7,70.8,2.2C74.6,13.1,71.5,26.3,63.8,35.4C56.1,44.6,43.9,49.8,32.6,59.8C21.2,69.9,10.6,84.7,-1.6,87.5C-13.8,90.3,-27.6,81.1,-39.6,71.4C-51.6,61.7,-61.8,51.6,-64,39.7C-66.3,27.7,-60.5,13.9,-62.6,-1.2C-64.7,-16.3,-74.7,-32.6,-72.5,-44.6C-70.3,-56.5,-55.9,-64.2,-41.8,-66.5C-27.7,-68.8,-13.8,-65.7,-1.1,-63.8C11.6,-61.8,23.2,-61.1,30.7,-55Z" transform="translate(100 100)" />
</svg>
